# File created by Blade
# Date/Time:  Fri Jan 16 17:19:08 2015
# Frame Rate: 120.000 fps
#------------------------------------------------------
:FULLY-SPECIFIED
:DEGREES
3945
root -5.564830 35.209516 -9.627291 -1.043701 -2.217598 -5.798714
Spine -2.991602 -2.748954 11.043092
Head 0.690113 9.159859 -9.195660
LeftShoulder -22.767291 14.310391 -14.996600
LeftArm 22.447614 -23.748127 -62.272896
LeftForeArm 22.351820 -0.000000 6.230549
LeftHand 0.211650 -0.000000 -13.218982
LeftHandThumb1 -26.253704 0.000000 33.147579
RightShoulder -6.361843 5.394993 -2.323536
RightArm -7.068504 16.048467 57.123857
RightForeArm -19.119366 -0.000000 13.488633
RightHand 1.881328 -0.000000 13.930025
RightHandThumb1 -24.326973 -0.000000 -32.862282
LeftUpLeg 10.846812 11.826737 7.014215
LeftLeg -9.220330 -0.000000 0.000000
LeftFoot -15.261477 27.738756 -7.548255
LeftToeBase 22.961207 -0.000000 -0.000000
RightUpLeg 8.345682 -5.810817 4.449292
RightLeg -4.539323 -0.000000 0.000000
RightFoot -5.377957 -29.649553 4.016258
RightToeBase 13.820872 -0.000000 -0.000000
3946
root -5.566984 35.209647 -9.626404 -1.053889 -2.216711 -5.802080
Spine -3.006239 -2.747432 11.041634
Head 0.691209 9.168277 -9.169271
LeftShoulder -22.848755 14.423964 -14.781711
LeftArm 22.716155 -24.539308 -61.637861
LeftForeArm 22.367290 0.000000 6.193253
LeftHand 0.128879 -0.000000 -13.061873
LeftHandThumb1 -26.253704 0.000000 33.147579
RightShoulder -6.418891 5.553382 -2.626915
RightArm -7.106732 16.225976 56.210753
RightForeArm -19.034641 0.000000 13.514696
RightHand 1.916847 -0.000000 13.805371
RightHandThumb1 -24.326973 -0.000000 -32.862282
LeftUpLeg 10.859033 11.834488 7.024932
LeftLeg -9.218950 -0.000000 0.000000
LeftFoot -15.268169 27.721357 -7.547822
LeftToeBase 22.989842 -0.000000 -0.000000
RightUpLeg 8.351379 -5.788040 4.457126
RightLeg -4.524760 -0.000000 0.000000
RightFoot -5.387454 -29.658420 4.018311
RightToeBase 13.832139 -0.000000 -0.000000
3947
root -5.568549 35.209426 -9.623103 -1.075122 -2.212230 -5.802037
Spine -3.013635 -2.741410 11.028811
Head 0.696673 9.138457 -9.125815
LeftShoulder -22.860075 14.572702 -14.530963
LeftArm 22.890614 -25.290989 -60.968641
LeftForeArm 22.262455 -0.000000 6.256860
LeftHand -0.015230 -0.000000 -12.813522
LeftHandThumb1 -26.253704 0.000000 33.147579
RightShoulder -6.482392 5.728503 -2.958765
RightArm -7.145891 16.326715 55.302141
RightForeArm -19.084704 -0.000000 13.492212
RightHand 1.951970 -0.000000 13.672162
RightHandThumb1 -24.326973 -0.000000 -32.862282
LeftUpLeg 10.885270 11.834339 7.032479
LeftLeg -9.219144 -0.000000 0.000000
LeftFoot -15.272681 27.716098 -7.563088
LeftToeBase 22.975341 -0.000000 -0.000000
RightUpLeg 8.378979 -5.767046 4.460002
RightLeg -4.524678 -0.000000 0.000000
RightFoot -5.392400 -29.681743 4.020561
RightToeBase 13.841140 -0.000000 -0.000000
3948
root -5.570630 35.209453 -9.622294 -1.078163 -2.191482 -5.796239
Spine -3.046533 -2.746109 11.011441
Head 0.718520 9.105062 -9.082350
LeftShoulder -22.877065 14.703447 -14.267292
LeftArm 23.102269 -26.067595 -60.310876
LeftForeArm 22.285400 0.000000 6.233425
LeftHand -0.024286 -0.000000 -12.711602
LeftHandThumb1 -26.253704 0.000000 33.147579
RightShoulder -6.543099 5.816234 -3.285190
RightArm -7.127419 16.447534 54.411465
RightForeArm -19.264217 -0.000000 13.553855
RightHand 1.939841 -0.000000 13.561590
RightHandThumb1 -24.326973 -0.000000 -32.862282
LeftUpLeg 10.883959 11.820520 7.031535
LeftLeg -9.220335 -0.000000 0.000000
LeftFoot -15.271958 27.725381 -7.500849
LeftToeBase 23.117064 -0.000000 -0.000000
RightUpLeg 8.381690 -5.760434 4.460305
RightLeg -4.520156 -0.000000 0.000000
RightFoot -5.402280 -29.698427 4.029248
RightToeBase 13.803931 -0.000000 -0.000000
3949
root -5.571552 35.209473 -9.620421 -1.089720 -2.186844 -5.793527
Spine -3.065570 -2.734721 11.001614
Head 0.731388 9.077470 -9.038357
LeftShoulder -22.904175 14.818893 -13.995745
LeftArm 23.299738 -26.787129 -59.645498
LeftForeArm 22.310044 0.000000 6.221520
LeftHand -0.128414 -0.000000 -12.468142
LeftHandThumb1 -26.253704 0.000000 33.147579
RightShoulder -6.610648 5.935268 -3.634138
RightArm -7.111116 16.511054 53.524371
RightForeArm -19.345557 -0.000000 13.592196
RightHand 1.880794 0.000000 13.594685
RightHandThumb1 -24.326973 -0.000000 -32.862282
LeftUpLeg 10.894393 11.800567 7.031458
LeftLeg -9.212281 -0.000000 0.000000
LeftFoot -15.285278 27.730532 -7.495667
LeftToeBase 23.136841 -0.000000 -0.000000
RightUpLeg 8.398656 -5.724791 4.459848
RightLeg -4.521653 -0.000000 0.000000
RightFoot -5.404878 -29.724100 4.015593
RightToeBase 13.818958 -0.000000 -0.000000
3950
root -5.573046 35.209575 -9.619572 -1.089324 -2.179324 -5.787543
Spine -3.101556 -2.715905 10.978814
Head 0.761092 9.023227 -8.976151
LeftShoulder -22.940729 15.003131 -13.739123
LeftArm 23.580548 -27.511703 -58.990105
LeftForeArm 22.327122 -0.000000 6.168541
LeftHand -0.277427 -0.000000 -12.479489
LeftHandThumb1 -26.253704 0.000000 33.147579
RightShoulder -6.668356 6.078655 -3.994834
RightArm -7.122929 16.548804 52.647166
RightForeArm -19.369852 -0.000000 13.604428
RightHand 1.747999 -0.000000 13.497414
RightHandThumb1 -24.326973 -0.000000 -32.862282
LeftUpLeg 10.885472 11.771944 7.023735
LeftLeg -9.191384 -0.000000 0.000000
LeftFoot -15.287749 27.726334 -7.574406
LeftToeBase 22.969603 -0.000000 -0.000000
RightUpLeg 8.398030 -5.709195 4.458853
RightLeg -4.514972 -0.000000 0.000000
RightFoot -5.418929 -29.744549 4.033215
RightToeBase 13.843584 -0.000000 -0.000000
3951
root -5.573716 35.209903 -9.617745 -1.097081 -2.182617 -5.789010
Spine -3.124291 -2.689466 10.972277
Head 0.786103 8.961833 -8.921024
LeftShoulder -22.991065 15.154965 -13.484118
LeftArm 23.857666 -28.188279 -58.305880
LeftForeArm 22.338037 -0.000000 6.083190
LeftHand -0.403408 -0.000000 -12.467683
LeftHandThumb1 -26.253704 0.000000 33.147579
RightShoulder -6.756621 6.224103 -4.378987
RightArm -7.116315 16.601786 51.777473
RightForeArm -19.499253 -0.000000 13.617834
RightHand 1.733377 -0.000000 13.437316
RightHandThumb1 -24.326973 -0.000000 -32.862282
LeftUpLeg 10.896681 11.770717 7.027536
LeftLeg -9.190381 -0.000000 0.000000
LeftFoot -15.291022 27.733373 -7.584724
LeftToeBase 22.954311 -0.000000 -0.000000
RightUpLeg 8.407273 -5.682016 4.462278
RightLeg -4.509335 -0.000000 0.000000
RightFoot -5.429097 -29.758588 4.045995
RightToeBase 13.829385 -0.000000 -0.000000
